<?xml version="1.0" standalone="no"?><!DOCTYPE svg PUBLIC "-//W3C//DTD SVG 1.1//EN" "http://www.w3.org/Graphics/SVG/1.1/DTD/svg11.dtd"><svg t="1676898105742" class="icon" viewBox="0 0 1414 1024" version="1.1" xmlns="http://www.w3.org/2000/svg" p-id="8462" xmlns:xlink="http://www.w3.org/1999/xlink" width="276.171875" height="200"><path d="M0 390.095238h121.904762v48.761905H0zM1316.571429 390.095238h97.523809v48.761905h-97.523809zM438.857143 390.095238h121.904762v48.761905H438.857143zM877.714286 390.095238h121.904762v48.761905h-121.904762z" fill="#FD5A5A" p-id="8463"></path><path d="M438.857143 195.047619a24.380952 24.380952 0 0 1-24.380953 24.380952h-24.380952v645.973334c0 60.562286-49.212952 109.83619-109.714286 109.83619s-109.714286-49.273905-109.714285-109.83619V219.428571h-24.380953a24.380952 24.380952 0 0 1-24.380952-24.380952v670.354286C121.904762 952.856381 192.999619 1024 280.380952 1024s158.47619-71.143619 158.476191-158.598095V195.047619z" fill="#A9C7D8" p-id="8464"></path><path d="M146.285714 219.428571h24.380953v645.973334c0 60.562286 49.212952 109.83619 109.714285 109.83619s109.714286-49.273905 109.714286-109.83619V219.428571h24.380952a24.380952 24.380952 0 0 0 24.380953-24.380952V48.761905h48.761905V0H73.142857v48.761905h48.761905v146.285714a24.380952 24.380952 0 0 0 24.380952 24.380952zM390.095238 48.761905v121.904762H170.666667V48.761905h219.428571z" fill="#3BABB7" p-id="8465"></path><path d="M877.714286 195.047619a24.380952 24.380952 0 0 1-24.380953 24.380952h-24.380952v645.973334c0 60.562286-49.212952 109.83619-109.714286 109.83619s-109.714286-49.273905-109.714285-109.83619V219.428571h-24.380953a24.380952 24.380952 0 0 1-24.380952-24.380952v670.354286c0 87.454476 71.094857 158.598095 158.47619 158.598095s158.47619-71.143619 158.476191-158.598095V195.047619z" fill="#A9C7D8" p-id="8466"></path><path d="M585.142857 219.428571h268.190476a24.380952 24.380952 0 0 0 24.380953-24.380952V48.761905h48.761904V0H512v48.761905h48.761905v146.285714a24.380952 24.380952 0 0 0 24.380952 24.380952z m243.809524-170.666666v121.904762h-219.428571V48.761905h219.428571z" fill="#3BABB7" p-id="8467"></path><path d="M1316.571429 195.047619a24.380952 24.380952 0 0 1-24.380953 24.380952h-24.380952v645.973334c0 60.562286-49.212952 109.83619-109.714286 109.83619s-109.714286-49.273905-109.714286-109.83619V219.428571h-24.380952a24.380952 24.380952 0 0 1-24.380952-24.380952v670.354286c0 87.454476 71.094857 158.598095 158.47619 158.598095s158.47619-71.143619 158.476191-158.598095V195.047619z" fill="#A9C7D8" p-id="8468"></path><path d="M1024 219.428571h268.190476a24.380952 24.380952 0 0 0 24.380953-24.380952V48.761905h48.761904V0h-414.47619v48.761905h48.761905v146.285714a24.380952 24.380952 0 0 0 24.380952 24.380952z m243.809524-170.666666v121.904762h-219.428572V48.761905h219.428572z" fill="#3BABB7" p-id="8469"></path><path d="M1048.380952 390.095238v475.306667c0 60.562286 49.212952 109.83619 109.714286 109.83619s109.714286-49.273905 109.714286-109.83619V219.428571h-219.428572v170.666667z" fill="#49A25A" p-id="8470"></path><path d="M609.52381 390.095238v475.306667c0 60.562286 49.212952 109.83619 109.714285 109.83619s109.714286-49.273905 109.714286-109.83619V219.428571h-219.428571v170.666667z" fill="#F8A131" p-id="8471"></path></svg>